<svg xmlns="http://www.w3.org/2000/svg" xmlns:xlink="http://www.w3.org/1999/xlink" version="1.1" x="0px" y="0px" viewBox="0 0 100 125" style="enable-background:new 0 0 100 100;" xml:space="preserve"><path fill="#CCCCCC" d="M51.4,50.4l14.2-14.1c0.4-0.4,0.4-1,0-1.4c-0.4-0.4-1-0.4-1.4,0L50,49L35.7,34.8c-0.4-0.4-1-0.4-1.4,0c-0.4,0.4-0.4,1,0,1.4  l14.2,14.1L34.3,64.5c-0.4,0.4-0.4,1,0,1.4c0.2,0.2,0.5,0.3,0.7,0.3c0.3,0,0.5-0.1,0.7-0.3L50,51.8l14.2,14.1  c0.2,0.2,0.5,0.3,0.7,0.3c0.3,0,0.5-0.1,0.7-0.3c0.4-0.4,0.4-1,0-1.4L51.4,50.4z"/></svg>