<svg xmlns="http://www.w3.org/2000/svg" xmlns:xlink="http://www.w3.org/1999/xlink" version="1.1" enable-background="new 0 0 64 64" xml:space="preserve" width="64" height="80"><rect id="backgroundrect" width="100%" height="100%" x="0" y="0" fill="none" stroke="none"/><g class="currentLayer"><title>Layer 1</title><g display="none" id="svg_1"><rect x="374.50201416015625" y="-437.50201416015625" transform="matrix(1.067751e-10,-1,1,1.067751e-10,310.5031,458.5) " display="inline" fill="#CCCCCC" width="20" height="1023" id="svg_2"/><rect x="-54.018001556396484" y="-37.66999816894531" display="inline" fill="#CCCCCC" width="947.4240112304688" height="496.1839904785156" id="svg_3"/></g><g display="none" id="svg_4"><g display="inline" id="svg_5"><g id="svg_6"><path fill="#CCCCCC" d="M17.272,16.07c0.839-0.143,2.016-0.25,3.677-0.25c1.677,0,2.874,0.321,3.676,0.964c0.769,0.608,1.286,1.607,1.286,2.785     c0,1.178-0.392,2.178-1.108,2.856c-0.927,0.875-2.302,1.267-3.908,1.267c-0.358,0-0.679-0.017-0.929-0.054v4.302h-2.695V16.07z      M19.967,21.532c0.233,0.054,0.517,0.071,0.91,0.071c1.446,0,2.339-0.732,2.339-1.964c0-1.106-0.767-1.767-2.124-1.767     c-0.554,0-0.929,0.053-1.125,0.107V21.532z" id="svg_7"/></g><g id="svg_8"><path fill="#CCCCCC" d="M27.47,16.07c0.999-0.161,2.302-0.25,3.677-0.25c2.285,0,3.766,0.411,4.926,1.286c1.25,0.928,2.035,2.409,2.035,4.533     c0,2.303-0.839,3.892-1.999,4.874c-1.267,1.053-3.196,1.553-5.552,1.553c-1.41,0-2.41-0.089-3.087-0.179V16.07z M30.201,25.887     c0.231,0.054,0.606,0.054,0.946,0.054c2.462,0.018,4.07-1.339,4.07-4.213c0.017-2.499-1.446-3.82-3.785-3.82     c-0.608,0-1,0.054-1.231,0.107V25.887z" id="svg_9"/></g><g id="svg_10"><path fill="#CCCCCC" d="M39.723,15.909h7.353v2.231h-4.622v2.749h4.32v2.214h-4.32v4.837h-2.731V15.909z" id="svg_11"/></g></g><g display="inline" id="svg_12"><g id="svg_13"><g id="svg_14"><line fill="#CCCCCC" stroke="#CCCCCC" stroke-width="2" stroke-miterlimit="10" x1="14.293000221252441" y1="41.428001403808594" x2="49.577999114990234" y2="41.428001403808594" id="svg_15"/></g><g id="svg_16"><line fill="#CCCCCC" stroke="#CCCCCC" stroke-width="2" stroke-miterlimit="10" x1="14.293000221252441" y1="46.332000732421875" x2="49.577999114990234" y2="46.332000732421875" id="svg_17"/></g><g id="svg_18"><line fill="#CCCCCC" stroke="#CCCCCC" stroke-width="2" stroke-miterlimit="10" x1="14.293000221252441" y1="51.23500061035156" x2="49.577999114990234" y2="51.23500061035156" id="svg_19"/></g></g></g><g display="inline" id="svg_20"><g id="svg_21"><path fill="#CCCCCC" d="M49.621,2C52.587,2,55,4.413,55,7.379v49.241C55,59.587,52.587,62,49.621,62H14.379C11.413,62,9,59.587,9,56.621V7.379     C9,4.413,11.413,2,14.379,2H49.621 M49.621,0H14.379C10.304,0,7,3.304,7,7.379v49.241C7,60.696,10.304,64,14.379,64h35.241     C53.696,64,57,60.696,57,56.621V7.379C57,3.304,53.696,0,49.621,0L49.621,0z" id="svg_22"/></g></g></g><g display="none" id="svg_23"><g display="inline" id="svg_24"><g id="svg_25"><path fill="#CCCCCC" d="M17.272,16.07c0.839-0.143,2.016-0.25,3.677-0.25c1.677,0,2.874,0.321,3.676,0.964c0.769,0.608,1.286,1.607,1.286,2.785     c0,1.178-0.392,2.178-1.108,2.856c-0.927,0.875-2.302,1.267-3.908,1.267c-0.358,0-0.679-0.017-0.929-0.054v4.302h-2.695V16.07z      M19.967,21.532c0.233,0.054,0.517,0.071,0.91,0.071c1.446,0,2.339-0.732,2.339-1.964c0-1.106-0.767-1.767-2.124-1.767     c-0.554,0-0.929,0.053-1.125,0.107V21.532z" id="svg_26"/></g><g id="svg_27"><path fill="#CCCCCC" d="M27.47,16.07c0.999-0.161,2.302-0.25,3.677-0.25c2.285,0,3.766,0.411,4.926,1.286c1.25,0.928,2.035,2.409,2.035,4.533     c0,2.303-0.839,3.892-1.999,4.874c-1.267,1.053-3.196,1.553-5.552,1.553c-1.41,0-2.41-0.089-3.087-0.179V16.07z M30.201,25.887     c0.231,0.054,0.606,0.054,0.946,0.054c2.462,0.018,4.07-1.339,4.07-4.213c0.017-2.499-1.446-3.82-3.785-3.82     c-0.608,0-1,0.054-1.231,0.107V25.887z" id="svg_28"/></g><g id="svg_29"><path fill="#CCCCCC" d="M39.723,15.909h7.353v2.231h-4.622v2.749h4.32v2.214h-4.32v4.837h-2.731V15.909z" id="svg_30"/></g></g><g display="inline" id="svg_31"><g id="svg_32"><g id="svg_33"><line fill="#CCCCCC" stroke="#CCCCCC" stroke-miterlimit="10" x1="14.293000221252441" y1="41.428001403808594" x2="49.577999114990234" y2="41.428001403808594" id="svg_34"/></g><g id="svg_35"><line fill="#CCCCCC" stroke="#CCCCCC" stroke-miterlimit="10" x1="14.293000221252441" y1="46.332000732421875" x2="49.577999114990234" y2="46.332000732421875" id="svg_36"/></g><g id="svg_37"><line fill="#CCCCCC" stroke="#CCCCCC" stroke-miterlimit="10" x1="14.293000221252441" y1="51.23500061035156" x2="49.577999114990234" y2="51.23500061035156" id="svg_38"/></g></g></g><g display="inline" id="svg_39"><g id="svg_40"><path fill="#CCCCCC" d="M49.621,1C53.138,1,56,3.862,56,7.379v49.241C56,60.138,53.138,63,49.621,63H14.379C10.862,63,8,60.138,8,56.621V7.379     C8,3.862,10.862,1,14.379,1H49.621 M49.621,0H14.379C10.304,0,7,3.304,7,7.379v49.241C7,60.696,10.304,64,14.379,64h35.241     C53.696,64,57,60.696,57,56.621V7.379C57,3.304,53.696,0,49.621,0L49.621,0z" id="svg_41"/></g></g></g><g display="none" id="svg_42"><g display="inline" id="svg_43"><g id="svg_44"><path fill="#CCCCCC" d="M17.272,15.555c0.839-0.143,2.016-0.25,3.677-0.25c1.677,0,2.874,0.321,3.676,0.964c0.769,0.608,1.286,1.607,1.286,2.785     s-0.392,2.178-1.108,2.856c-0.927,0.875-2.302,1.267-3.908,1.267c-0.358,0-0.679-0.017-0.929-0.054v4.302h-2.695V15.555z      M19.967,21.018c0.233,0.054,0.517,0.071,0.91,0.071c1.446,0,2.339-0.732,2.339-1.964c0-1.106-0.767-1.767-2.124-1.767     c-0.554,0-0.929,0.053-1.125,0.107V21.018z" id="svg_45"/></g><g id="svg_46"><path fill="#CCCCCC" d="M27.47,15.555c0.999-0.161,2.302-0.25,3.677-0.25c2.285,0,3.766,0.411,4.926,1.286c1.25,0.928,2.035,2.409,2.035,4.533     c0,2.303-0.839,3.892-1.999,4.874c-1.267,1.053-3.196,1.553-5.552,1.553c-1.41,0-2.41-0.089-3.087-0.179V15.555z M30.201,25.373     c0.231,0.054,0.606,0.054,0.946,0.054c2.462,0.018,4.07-1.339,4.07-4.213c0.017-2.499-1.446-3.82-3.785-3.82     c-0.608,0-1,0.054-1.231,0.107V25.373z" id="svg_47"/></g><g id="svg_48"><path fill="#CCCCCC" d="M39.723,15.395h7.353v2.231h-4.622v2.749h4.32v2.214h-4.32v4.837h-2.731V15.395z" id="svg_49"/></g></g><g display="inline" id="svg_50"><g id="svg_51"><g id="svg_52"><path fill="#CCCCCC" d="M51.121,4C52.984,4,54.5,5.516,54.5,7.379v49.241c0,1.863-1.516,3.379-3.379,3.379H12.879      C11.016,60,9.5,58.484,9.5,56.621V7.379C9.5,5.516,11.016,4,12.879,4H51.121 M51.121,0H12.879C8.804,0,5.5,3.304,5.5,7.379      v49.241C5.5,60.696,8.804,64,12.879,64h38.241c4.075,0,7.379-3.304,7.379-7.379V7.379C58.5,3.304,55.196,0,51.121,0L51.121,0z" id="svg_53"/></g></g><g id="svg_54"><g id="svg_55"><line fill="#CCCCCC" stroke="#CCCCCC" stroke-width="4" stroke-miterlimit="10" x1="15" y1="40.69900131225586" x2="49" y2="40.69900131225586" id="svg_56"/></g><g id="svg_57"><line fill="#CCCCCC" stroke="#CCCCCC" stroke-width="4" stroke-miterlimit="10" x1="15" y1="46.60200119018555" x2="49" y2="46.60200119018555" id="svg_58"/></g><g id="svg_59"><line fill="#CCCCCC" stroke="#CCCCCC" stroke-width="4" stroke-miterlimit="10" x1="15" y1="52.505001068115234" x2="49" y2="52.505001068115234" id="svg_60"/></g></g></g></g><g display="none" id="svg_61"><g display="inline" id="svg_62"><g id="svg_63"><path fill="#CCCCCC" d="M17.272,16.07c0.839-0.143,2.016-0.25,3.677-0.25c1.677,0,2.874,0.321,3.676,0.964c0.769,0.608,1.286,1.607,1.286,2.785     c0,1.178-0.392,2.178-1.108,2.856c-0.927,0.875-2.302,1.267-3.908,1.267c-0.358,0-0.679-0.017-0.929-0.054v4.302h-2.695V16.07z      M19.967,21.532c0.233,0.054,0.517,0.071,0.91,0.071c1.446,0,2.339-0.732,2.339-1.964c0-1.106-0.767-1.767-2.124-1.767     c-0.554,0-0.929,0.053-1.125,0.107V21.532z" id="svg_64"/></g><g id="svg_65"><path fill="#CCCCCC" d="M27.47,16.07c0.999-0.161,2.302-0.25,3.677-0.25c2.285,0,3.766,0.411,4.926,1.286c1.25,0.928,2.035,2.409,2.035,4.533     c0,2.303-0.839,3.892-1.999,4.874c-1.267,1.053-3.196,1.553-5.552,1.553c-1.41,0-2.41-0.089-3.087-0.179V16.07z M30.201,25.887     c0.231,0.054,0.606,0.054,0.946,0.054c2.462,0.018,4.07-1.339,4.07-4.213c0.017-2.499-1.446-3.82-3.785-3.82     c-0.608,0-1,0.054-1.231,0.107V25.887z" id="svg_66"/></g><g id="svg_67"><path fill="#CCCCCC" d="M39.723,15.909h7.353v2.231h-4.622v2.749h4.32v2.214h-4.32v4.837h-2.731V15.909z" id="svg_68"/></g></g><g display="inline" id="svg_69"><g id="svg_70"><g id="svg_71"><line fill="#CCCCCC" stroke="#CCCCCC" stroke-width="2" stroke-miterlimit="10" x1="14.293000221252441" y1="41.428001403808594" x2="49.577999114990234" y2="41.428001403808594" id="svg_72"/></g><g id="svg_73"><line fill="#CCCCCC" stroke="#CCCCCC" stroke-width="2" stroke-miterlimit="10" x1="14.293000221252441" y1="46.332000732421875" x2="49.577999114990234" y2="46.332000732421875" id="svg_74"/></g><g id="svg_75"><line fill="#CCCCCC" stroke="#CCCCCC" stroke-width="2" stroke-miterlimit="10" x1="14.293000221252441" y1="51.23500061035156" x2="49.577999114990234" y2="51.23500061035156" id="svg_76"/></g></g></g><g display="inline" id="svg_77"><g id="svg_78"><path fill="#CCCCCC" d="M55,2v54.621C55,59.587,52.587,62,49.621,62H9V7.379C9,4.413,11.413,2,14.379,2H55 M57,0H14.379     C10.304,0,7,3.304,7,7.379V64h42.621C53.696,64,57,60.696,57,56.621V0L57,0z" id="svg_79"/></g></g></g><g id="svg_80" class="selected" fill="#dadada" fill-opacity="1"><g id="svg_81" fill="#dadada" fill-opacity="1"><path fill="#dadada" d="M19.967,23.638c0.25,0.036,0.571,0.054,0.929,0.054c1.606,0,2.981-0.392,3.908-1.267c0.715-0.678,1.108-1.678,1.108-2.856    c0-1.178-0.517-2.177-1.286-2.785c-0.802-0.642-1.999-0.964-3.676-0.964c-1.661,0-2.839,0.107-3.677,0.25V27.94h2.695V23.638z     M19.967,17.98c0.196-0.054,0.571-0.107,1.125-0.107c1.356,0,2.124,0.661,2.124,1.767c0,1.232-0.892,1.964-2.339,1.964    c-0.392,0-0.677-0.017-0.91-0.071V17.98z" id="svg_82" fill-opacity="1"/><path fill="#dadada" d="M36.11,26.512c1.16-0.982,1.999-2.57,1.999-4.874c0-2.124-0.785-3.605-2.035-4.533c-1.16-0.875-2.641-1.286-4.926-1.286    c-1.375,0-2.679,0.089-3.677,0.25v11.817c0.677,0.089,1.677,0.179,3.087,0.179C32.913,28.065,34.842,27.565,36.11,26.512z     M30.201,18.015c0.231-0.053,0.624-0.107,1.231-0.107c2.339,0,3.802,1.321,3.785,3.82c0,2.874-1.608,4.231-4.07,4.213    c-0.34,0-0.715,0-0.946-0.054V18.015z" id="svg_83" fill-opacity="1"/><polygon points="42.454,23.103 46.774,23.103 46.774,20.889 42.454,20.889 42.454,18.14 47.076,18.14 47.076,15.909     39.723,15.909 39.723,27.94 42.454,27.94   " id="svg_84" fill="#dadada" fill-opacity="1"/><rect x="14.293000221252441" y="40.928001403808594" width="35.2859992980957" height="1" id="svg_85" fill="#dadada" fill-opacity="1"/><rect x="14.293000221252441" y="45.83100128173828" width="35.2859992980957" height="1" id="svg_86" fill="#dadada" fill-opacity="1"/><rect x="14.293000221252441" y="50.73500061035156" width="35.2859992980957" height="1" id="svg_87" fill="#dadada" fill-opacity="1"/><path fill="#dadada" d="M57,56.621V0H14.379C10.304,0,7,3.304,7,7.379V64h42.621C53.696,64,57,60.696,57,56.621z M8,7.379    C8,3.862,10.862,1,14.379,1H56v55.621C56,60.138,53.138,63,49.621,63H8V7.379z" id="svg_88" fill-opacity="1"/></g></g><g display="none" id="svg_89"><g display="inline" id="svg_90"><g id="svg_91"><path fill="#CCCCCC" d="M17.272,16.07c0.839-0.143,2.016-0.25,3.677-0.25c1.677,0,2.874,0.321,3.676,0.964c0.769,0.608,1.286,1.607,1.286,2.785     c0,1.178-0.392,2.178-1.108,2.856c-0.927,0.875-2.302,1.267-3.908,1.267c-0.358,0-0.679-0.017-0.929-0.054v4.302h-2.695V16.07z      M19.967,21.532c0.233,0.054,0.517,0.071,0.91,0.071c1.446,0,2.339-0.732,2.339-1.964c0-1.106-0.767-1.767-2.124-1.767     c-0.554,0-0.929,0.053-1.125,0.107V21.532z" id="svg_92"/></g><g id="svg_93"><path fill="#CCCCCC" d="M27.47,16.07c0.999-0.161,2.302-0.25,3.677-0.25c2.285,0,3.766,0.411,4.926,1.286c1.25,0.928,2.035,2.409,2.035,4.533     c0,2.303-0.839,3.892-1.999,4.874c-1.267,1.053-3.196,1.553-5.552,1.553c-1.41,0-2.41-0.089-3.087-0.179V16.07z M30.201,25.887     c0.231,0.054,0.606,0.054,0.946,0.054c2.462,0.018,4.07-1.339,4.07-4.213c0.017-2.499-1.446-3.82-3.785-3.82     c-0.608,0-1,0.054-1.231,0.107V25.887z" id="svg_94"/></g><g id="svg_95"><path fill="#CCCCCC" d="M39.723,15.909h7.353v2.231h-4.622v2.749h4.32v2.214h-4.32v4.837h-2.731V15.909z" id="svg_96"/></g></g><g display="inline" id="svg_97"><g id="svg_98"><line fill="#CCCCCC" stroke="#CCCCCC" stroke-width="4" stroke-miterlimit="10" x1="14.293000221252441" y1="40.428001403808594" x2="49.577999114990234" y2="40.428001403808594" id="svg_99"/></g><g id="svg_100"><line fill="#CCCCCC" stroke="#CCCCCC" stroke-width="4" stroke-miterlimit="10" x1="14.293000221252441" y1="46.332000732421875" x2="49.577999114990234" y2="46.332000732421875" id="svg_101"/></g><g id="svg_102"><line fill="#CCCCCC" stroke="#CCCCCC" stroke-width="4" stroke-miterlimit="10" x1="14.293000221252441" y1="52.23500061035156" x2="49.577999114990234" y2="52.23500061035156" id="svg_103"/></g><g id="svg_104"><g id="svg_105"><path fill="#CCCCCC" d="M54.5,4v52.621c0,1.863-1.516,3.379-3.379,3.379H9.5V7.379C9.5,5.516,11.016,4,12.879,4H54.5 M58.5,0H12.879      C8.804,0,5.5,3.304,5.5,7.379V64h45.621c4.075,0,7.379-3.304,7.379-7.379V0L58.5,0z" id="svg_106"/></g></g></g></g><g display="none" id="svg_107"><g display="inline" id="svg_108"><g id="svg_109"><path fill="#CCCCCC" d="M17.272,16.07c0.839-0.143,2.016-0.25,3.677-0.25c1.677,0,2.874,0.321,3.676,0.964c0.769,0.608,1.286,1.607,1.286,2.785     c0,1.178-0.392,2.178-1.108,2.856c-0.927,0.875-2.302,1.267-3.908,1.267c-0.358,0-0.679-0.017-0.929-0.054v4.302h-2.695V16.07z      M19.967,21.532c0.233,0.054,0.517,0.071,0.91,0.071c1.446,0,2.339-0.732,2.339-1.964c0-1.106-0.767-1.767-2.124-1.767     c-0.554,0-0.929,0.053-1.125,0.107V21.532z" id="svg_110"/></g><g id="svg_111"><path fill="#CCCCCC" d="M27.47,16.07c0.999-0.161,2.302-0.25,3.677-0.25c2.285,0,3.766,0.411,4.926,1.286c1.25,0.928,2.035,2.409,2.035,4.533     c0,2.303-0.839,3.892-1.999,4.874c-1.267,1.053-3.196,1.553-5.552,1.553c-1.41,0-2.41-0.089-3.087-0.179V16.07z M30.201,25.887     c0.231,0.054,0.606,0.054,0.946,0.054c2.462,0.018,4.07-1.339,4.07-4.213c0.017-2.499-1.446-3.82-3.785-3.82     c-0.608,0-1,0.054-1.231,0.107V25.887z" id="svg_112"/></g><g id="svg_113"><path fill="#CCCCCC" d="M39.723,15.909h7.353v2.231h-4.622v2.749h4.32v2.214h-4.32v4.837h-2.731V15.909z" id="svg_114"/></g></g><g display="inline" id="svg_115"><g id="svg_116"><g id="svg_117"><line fill="#CCCCCC" stroke="#CCCCCC" stroke-miterlimit="10" x1="14.293000221252441" y1="39.428001403808594" x2="49.577999114990234" y2="39.428001403808594" id="svg_118"/></g><g id="svg_119"><line fill="#CCCCCC" stroke="#CCCCCC" stroke-miterlimit="10" x1="14.293000221252441" y1="44.332000732421875" x2="49.577999114990234" y2="44.332000732421875" id="svg_120"/></g><g id="svg_121"><line fill="#CCCCCC" stroke="#CCCCCC" stroke-miterlimit="10" x1="14.293000221252441" y1="49.23500061035156" x2="49.577999114990234" y2="49.23500061035156" id="svg_122"/></g></g></g><g display="inline" id="svg_123"><g id="svg_124"><line fill="#CCCCCC" stroke="#CCCCCC" stroke-miterlimit="10" x1="7" y1="58.72700119018555" x2="7" y2="5.2729997634887695" id="svg_125"/><line fill="#CCCCCC" stroke="#CCCCCC" stroke-miterlimit="10" x1="57" y1="5.2729997634887695" x2="57" y2="58.72700119018555" id="svg_126"/></g><g id="svg_127"><g id="svg_128"><g id="svg_129"><path fill="#CCCCCC" d="M58.754,1v3.582H5.246V1H58.754 M59.754,0H4.246v5.582h55.507V0L59.754,0z" id="svg_130"/></g></g><g id="svg_131"><g id="svg_132"><path fill="#CCCCCC" d="M58.754,59.418V63H5.246v-3.582H58.754 M59.754,58.418H4.246V64h55.507V58.418L59.754,58.418z" id="svg_133"/></g></g></g></g></g><g display="none" id="svg_134"><g display="inline" id="svg_135"><path fill="#CCCCCC" d="M17.272,16.07c0.839-0.143,2.016-0.25,3.677-0.25c1.677,0,2.874,0.321,3.676,0.964c0.769,0.608,1.286,1.607,1.286,2.785    c0,1.178-0.392,2.178-1.108,2.856c-0.927,0.875-2.302,1.267-3.908,1.267c-0.358,0-0.679-0.017-0.929-0.054v4.302h-2.695V16.07z     M19.967,21.532c0.233,0.054,0.517,0.071,0.91,0.071c1.446,0,2.339-0.732,2.339-1.964c0-1.106-0.767-1.767-2.124-1.767    c-0.554,0-0.929,0.053-1.125,0.107V21.532z" id="svg_136"/><path fill="#CCCCCC" d="M27.47,16.07c0.999-0.161,2.302-0.25,3.677-0.25c2.285,0,3.766,0.411,4.926,1.286c1.25,0.928,2.035,2.409,2.035,4.533    c0,2.303-0.839,3.892-1.999,4.874c-1.267,1.053-3.196,1.553-5.552,1.553c-1.41,0-2.41-0.089-3.087-0.179V16.07z M30.201,25.887    c0.231,0.054,0.606,0.054,0.946,0.054c2.462,0.018,4.07-1.339,4.07-4.213c0.017-2.499-1.446-3.82-3.785-3.82    c-0.608,0-1,0.054-1.231,0.107V25.887z" id="svg_137"/><path fill="#CCCCCC" d="M39.723,15.909h7.353v2.231h-4.622v2.749h4.32v2.214h-4.32v4.837h-2.731V15.909z" id="svg_138"/></g><g display="inline" id="svg_139"><g id="svg_140"><line fill="#CCCCCC" stroke="#CCCCCC" stroke-width="4" stroke-miterlimit="10" x1="6.5" y1="61.516998291015625" x2="6.5" y2="2.4830000400543213" id="svg_141"/><line fill="#CCCCCC" stroke="#CCCCCC" stroke-width="4" stroke-miterlimit="10" x1="57.5" y1="2.4830000400543213" x2="57.5" y2="61.516998291015625" id="svg_142"/></g><g id="svg_143"><line fill="#CCCCCC" stroke="#CCCCCC" stroke-width="4" stroke-miterlimit="10" x1="64" y1="2" x2="0" y2="2" id="svg_144"/><line fill="#CCCCCC" stroke="#CCCCCC" stroke-width="4" stroke-miterlimit="10" x1="64" y1="62" x2="0" y2="62" id="svg_145"/></g><g id="svg_146"><line fill="#CCCCCC" stroke="#CCCCCC" stroke-width="4" stroke-miterlimit="10" x1="14.293000221252441" y1="38.428001403808594" x2="49.577999114990234" y2="38.428001403808594" id="svg_147"/></g><g id="svg_148"><line fill="#CCCCCC" stroke="#CCCCCC" stroke-width="4" stroke-miterlimit="10" x1="14.293000221252441" y1="44.332000732421875" x2="49.577999114990234" y2="44.332000732421875" id="svg_149"/></g><g id="svg_150"><line fill="#CCCCCC" stroke="#CCCCCC" stroke-width="4" stroke-miterlimit="10" x1="14.293000221252441" y1="50.23500061035156" x2="49.577999114990234" y2="50.23500061035156" id="svg_151"/></g></g></g></g></svg>