<?xml version="1.0" encoding="UTF-8"?>
<svg width="32px" height="32px" viewBox="0 0 32 32" version="1.1" xmlns="http://www.w3.org/2000/svg" xmlns:xlink="http://www.w3.org/1999/xlink">
    <!-- Generator: Sketch 3.8.3 (29802) - http://www.bohemiancoding.com/sketch -->
    <title>Group</title>
    <desc>Created with Sketch.</desc>
    <defs></defs>
    <g id="Page-1" stroke="none" stroke-width="1" fill="none" fill-rule="evenodd">
        <g id="Group" fill="#FFFFFF">
            <path d="M6,32 L3,32 C1.35,32 0,30.65 0,29 L0,26 C0,24.35 1.35,23 3,23 L6,23 C7.65,23 9,24.35 9,26 L9,29 C9,30.65 7.65,32 6,32 L6,32 Z M3,25 C2.45,25 2,25.45 2,26 L2,29 C2,29.55 2.45,30 3,30 L6,30 C6.55,30 7,29.55 7,29 L7,26 C7,25.45 6.55,25 6,25 L3,25 L3,25 Z" id="Shape"></path>
            <path d="M17,32 L14,32 C12.35,32 11,30.65 11,29 L11,26 C11,24.35 12.35,23 14,23 L17,23 C18.65,23 20,24.35 20,26 L20,29 C20,30.65 18.65,32 17,32 L17,32 Z M14,25 C13.45,25 13,25.45 13,26 L13,29 C13,29.55 13.45,30 14,30 L17,30 C17.55,30 18,29.55 18,29 L18,26 C18,25.45 17.55,25 17,25 L14,25 L14,25 Z" id="Shape"></path>
            <path d="M28,32 L25,32 C23.35,32 22,30.65 22,29 L22,26 C22,24.35 23.35,23 25,23 L28,23 C29.65,23 31,24.35 31,26 L31,29 C31,30.65 29.65,32 28,32 L28,32 Z M25,25 C24.45,25 24,25.45 24,26 L24,29 C24,29.55 24.45,30 25,30 L28,30 C28.55,30 29,29.55 29,29 L29,26 C29,25.45 28.55,25 28,25 L25,25 L25,25 Z" id="Shape"></path>
            <path d="M6,21 L3,21 C1.35,21 0,19.65 0,18 L0,15 C0,13.35 1.35,12 3,12 L6,12 C7.65,12 9,13.35 9,15 L9,18 C9,19.65 7.65,21 6,21 L6,21 Z M3,14 C2.45,14 2,14.45 2,15 L2,18 C2,18.55 2.45,19 3,19 L6,19 C6.55,19 7,18.55 7,18 L7,15 C7,14.45 6.55,14 6,14 L3,14 L3,14 Z" id="Shape"></path>
            <path d="M17,21 L14,21 C12.35,21 11,19.65 11,18 L11,15 C11,13.35 12.35,12 14,12 L17,12 C18.65,12 20,13.35 20,15 L20,18 C20,19.65 18.65,21 17,21 L17,21 Z M14,14 C13.45,14 13,14.45 13,15 L13,18 C13,18.55 13.45,19 14,19 L17,19 C17.55,19 18,18.55 18,18 L18,15 C18,14.45 17.55,14 17,14 L14,14 L14,14 Z" id="Shape"></path>
            <path d="M28,21 L25,21 C23.35,21 22,19.65 22,18 L22,15 C22,13.35 23.35,12 25,12 L28,12 C29.65,12 31,13.35 31,15 L31,18 C31,19.65 29.65,21 28,21 L28,21 Z M25,14 C24.45,14 24,14.45 24,15 L24,18 C24,18.55 24.45,19 25,19 L28,19 C28.55,19 29,18.55 29,18 L29,15 C29,14.45 28.55,14 28,14 L25,14 L25,14 Z" id="Shape"></path>
            <path d="M6,10 L3,10 C1.35,10 0,8.65 0,7 L0,4 C0,2.35 1.35,1 3,1 L6,1 C7.65,1 9,2.35 9,4 L9,7 C9,8.65 7.65,10 6,10 L6,10 Z M3,3 C2.45,3 2,3.45 2,4 L2,7 C2,7.55 2.45,8 3,8 L6,8 C6.55,8 7,7.55 7,7 L7,4 C7,3.45 6.55,3 6,3 L3,3 L3,3 Z" id="Shape"></path>
            <path d="M17,10 L14,10 C12.35,10 11,8.65 11,7 L11,4 C11,2.35 12.35,1 14,1 L17,1 C18.65,1 20,2.35 20,4 L20,7 C20,8.65 18.65,10 17,10 L17,10 Z M14,3 C13.45,3 13,3.45 13,4 L13,7 C13,7.55 13.45,8 14,8 L17,8 C17.55,8 18,7.55 18,7 L18,4 C18,3.45 17.55,3 17,3 L14,3 L14,3 Z" id="Shape"></path>
            <path d="M27.5,10.1 L27.5,10.1 C26.98,10.1 26.46,9.96 26,9.7 L23.4,8.2 C22.71,7.8 22.21,7.15 22,6.38 C21.8,5.6 21.9,4.79 22.3,4.1 L23.8,1.5 C24.34,0.57 25.33,0 26.4,0 C26.92,0 27.44,0.14 27.9,0.4 L30.5,1.9 C31.19,2.3 31.69,2.95 31.9,3.72 C32.1,4.5 32,5.31 31.6,6 L30.1,8.6 C29.56,9.52 28.57,10.1 27.5,10.1 L27.5,10.1 Z M26.4,2 C26.04,2 25.71,2.19 25.53,2.5 L24.03,5.1 C23.9,5.33 23.86,5.6 23.93,5.86 C24,6.11 24.17,6.33 24.4,6.46 L27,7.96 C27.46,8.23 28.1,8.06 28.37,7.59 L29.87,4.99 C30,4.76 30.04,4.49 29.97,4.23 C29.9,3.97 29.74,3.76 29.51,3.62 L26.91,2.12 C26.75,2.05 26.58,2 26.4,2 L26.4,2 Z" id="Shape"></path>
        </g>
    </g>
</svg>