<svg xmlns:dc="http://purl.org/dc/elements/1.1/" xmlns:cc="http://creativecommons.org/ns#" xmlns:rdf="http://www.w3.org/1999/02/22-rdf-syntax-ns#" xmlns:svg="http://www.w3.org/2000/svg" xmlns="http://www.w3.org/2000/svg" xmlns:sodipodi="http://sodipodi.sourceforge.net/DTD/sodipodi-0.dtd" xmlns:inkscape="http://www.inkscape.org/namespaces/inkscape" version="1.1" x="0px" y="0px" viewBox="0 0 100 125"><g transform="translate(0,-952.36218)"><path style="text-indent:0;text-transform:none;direction:ltr;block-progression:tb;baseline-shift:baseline;color:#000000;enable-background:accumulate;" d="m 50,958.36219 c -10.0526,0 -18,9.0981 -18,20 0,10.90189 7.9474,20 18,20 10.0526,0 18,-9.09811 18,-20 0,-10.9019 -7.9474,-20 -18,-20 z m 0,4 c 7.6206,0 14,7.01966 14,16 0,8.98033 -6.3794,16 -14,16 -7.6206,0 -14,-7.01967 -14,-16 0,-8.98034 6.3794,-16 14,-16 z m 0,40.00001 c -22.1254,0 -40.0000002,17.8746 -40.0000002,40 l 0,4 4.0000002,0 0,-4 c 0,-19.9786 16.0214,-36 36,-36 19.9786,0 36,16.0214 36,36 l 0,4 4,0 0,-4 c 0,-22.1254 -17.8746,-40 -40,-40 z" fill="#000000" fill-opacity="1" stroke="none" marker="none" visibility="visible" display="inline" overflow="visible"/></g></svg>